<svg xmlns="http://www.w3.org/2000/svg" width="32" height="32" viewBox="0 0 32 32" fill="none">
  <defs>
    <linearGradient id="fireGradient" x1="16" y1="0" x2="16" y2="32" gradientUnits="userSpaceOnUse">
      <stop offset="0" stop-color="#ff9900" />
      <stop offset="1" stop-color="#00b4d8" />
    </linearGradient>
    <style>
      @media (prefers-color-scheme: dark) {
        #top-flame { fill: #ff9900; }
        #bottom-flame { fill: #00b4d8; }
        #middle-flame { fill: url(#fireGradient); }
      }
      
      @media (prefers-color-scheme: light) {
        #top-flame { fill: #ff9900; }
        #bottom-flame { fill: #00b4d8; }
        #middle-flame { fill: url(#fireGradient); }
      }
    </style>
  </defs>
  <path id="top-flame" d="M16 2C16 2 18 6 18 8C18 10 16 12 16 12C16 12 14 10 14 8C14 6 16 2 16 2Z" fill="#ff9900" />
  <path id="middle-flame" d="M16 5C16 5 19 10 20 13C21 16 18 20 16 23C14 20 11 16 12 13C13 10 16 5 16 5Z" fill="url(#fireGradient)" />
  <path id="bottom-flame" d="M16 12C16 12 21 17 21 22C21 26 19 28 16 30C13 28 11 26 11 22C11 17 16 12 16 12Z" fill="#00b4d8" />
  <path id="highlight" d="M16 17C18 18.5 19 20 19 23C19 25 17.5 27 16 28C14.5 27 13 25 13 23C13 20 14 18.5 16 17Z" fill="#fff" opacity="0.3" />
</svg>
